<?xml version="1.0" encoding="UTF-8"?><svg id="Layer_1" xmlns="http://www.w3.org/2000/svg" viewBox="0 0 32 32"><defs><style>.cls-1,.cls-2{fill:none;}.cls-1,.cls-3,.cls-4{stroke-width:0px;}.cls-2{stroke:#fff;stroke-miterlimit:10;}.cls-4{fill:#fff;}</style></defs><rect class="cls-3" width="32" height="32"/><path class="cls-1" d="m0,0h32v32H0V0Z"/><path class="cls-4" d="m15.71,17.02c-.87,3.14-1.61,5.78-1.67,6.14-.05.37-.37.66-.75.66h-.09c-.41-.05-.7-.42-.66-.83.04-.3.62-2.47,1.34-5.05-1.02.47-1.87.78-2.37.84-.09.01-.17.01-.25.01-.51,0-.77-.25-.89-.46-.21-.36-.09-.82.27-1.02.22-.12.48-.13.7-.03.44-.06,1.58-.53,3.08-1.31.75-2.67,1.53-5.39,1.91-6.75.12-.4.54-.62.94-.5.38.12.6.52.51.9-.46,1.61-.99,3.48-1.51,5.32.64-.37,1.33-.79,2.02-1.24,3.74-2.42,6.29-4.73,6.79-6.2.2-.55.05-.81-.22-1.01-.66-.51-2.67-.57-6.36.78-5.54,2.02-11.37,5.93-11.94,7.98.06.01.11.01.17.01.41-.04.78.27.81.69.04.41-.27.78-.69.81h-.05c-.16.01-.98.03-1.45-.54-.27-.34-.37-.79-.27-1.21.37-1.74,2.76-3.66,4.68-4.95,2.57-1.71,5.32-3.11,8.21-4.19,2.65-.97,6.13-1.84,7.8-.55.78.6,1.05,1.47.79,2.45-.34,1.26-1.84,3.5-7.04,6.93-1.24.84-2.52,1.61-3.83,2.32h0Z"/><circle class="cls-4" cx="16.68" cy="23.13" r=".69"/><path class="cls-2" d="m5,27.32h22"/></svg>